<svg viewBox="0 0 464 464" xmlns="http://www.w3.org/2000/svg"><path d="m120 352h80v24h-80zm0 0" fill="#1cc8eb"/><path d="m120 384c0 8.835938 7.164062 16 16 16h48c8.835938 0 16-7.164062 16-16v-8h-80zm0 0" fill="#1cc8eb"/><path d="m464 272-32-40-32 40zm0 0" fill="#a3771d"/><path d="m320 152-40-40v-80h40v-32h-240v80h-80v384h320zm0 0" fill="#ebebeb"/><path d="m320 464h32v-280l-32-32zm0 0" fill="#e0e0e0"/><path d="m320 0h32v32h-32zm0 0" fill="#e0e0e0"/><path d="m178.519531 317.832031c-12.246093 2.207031-24.792969 2.207031-37.039062 0-7.335938-1.222656-14.53125-3.175781-21.480469-5.832031v63.488281c0 8.835938 7.164062 16 16 16h8c0 8.835938 7.164062 16 16 16s16-7.164062 16-16h8c8.835938 0 16-7.164062 16-16v-63.488281c-6.949219 2.65625-14.144531 4.609375-21.480469 5.832031zm0 0" fill="#1cc8eb"/><path d="m280 32v80l104 104 80-80-104-104zm0 0" fill="#ffb41f"/><path d="m80 0-80 80h80zm0 0" fill="#e0e0e0"/><path d="m344 80c0 8.835938-7.164062 16-16 16s-16-7.164062-16-16 7.164062-16 16-16 16 7.164062 16 16zm0 0" fill="#e0e0e0"/><path d="m400 456c0 4.417969 3.582031 8 8 8h48c4.417969 0 8-3.582031 8-8v-184h-64zm0 0" fill="#dbb15c"/><path d="m272 216c0 61.855469-50.144531 112-112 112s-112-50.144531-112-112 50.144531-112 112-112 112 50.144531 112 112zm0 0" fill="#ffb41f"/><path d="m160 104c-33.65625-.027344-65.535156 15.117188-86.777344 41.222656 44.546875-36.195312 109.242188-32.859375 149.828125 7.726563 40.585938 40.585937 43.921875 105.28125 7.726563 149.828125 36.691406-29.945313 50.585937-79.730469 34.699218-124.34375-15.882812-44.617188-58.117187-74.417969-105.476562-74.433594zm0 0" fill="#fa0"/><path d="m120 336h80v16h-80zm0 0" fill="#74d5e8"/><path d="m120 360h80v16h-80zm0 0" fill="#74d5e8"/><path d="m227.574219 208.839844-32-16c-2.25-1.125-4.898438-1.125-7.148438 0l-28.425781 14.214844-28.425781-14.214844c-2.25-1.125-4.898438-1.125-7.148438 0l-32 16 7.148438 14.320312 20.9375-10.472656 13.089843 91.3125 15.832032-2.265625-12.632813-88.40625 19.625 9.871094c2.25 1.125 4.898438 1.125 7.148438 0l19.625-9.871094-12.589844 88.40625 15.832031 2.265625 13.046875-91.3125 20.9375 10.511719zm0 0" fill="#fd9"/><g fill="#b0b0b0"><path d="m200 72h48c4.417969 0 8 3.582031 8 8s-3.582031 8-8 8h-48c-4.417969 0-8-3.582031-8-8s3.582031-8 8-8zm0 0"/><path d="m240 40h8c4.417969 0 8 3.582031 8 8s-3.582031 8-8 8h-8c-4.417969 0-8-3.582031-8-8s3.582031-8 8-8zm0 0"/><path d="m160 40h48c4.417969 0 8 3.582031 8 8s-3.582031 8-8 8h-48c-4.417969 0-8-3.582031-8-8s3.582031-8 8-8zm0 0"/></g><path d="m375.996094 156.6875 28.6875-28.6875c3.125-3.125 8.1875-3.125 11.3125 0s3.125 8.191406 0 11.3125l-28.6875 28.6875c-3.121094 3.125-8.1875 3.125-11.3125 0s-3.125-8.1875 0-11.3125zm0 0" fill="#e0e0e0"/><path d="m240 336h48c4.417969 0 8 3.582031 8 8s-3.582031 8-8 8h-48c-4.417969 0-8-3.582031-8-8s3.582031-8 8-8zm0 0" fill="#b0b0b0"/><path d="m240 368h48c4.417969 0 8 3.582031 8 8s-3.582031 8-8 8h-48c-4.417969 0-8-3.582031-8-8s3.582031-8 8-8zm0 0" fill="#b0b0b0"/><path d="m240 400h48c4.417969 0 8 3.582031 8 8s-3.582031 8-8 8h-48c-4.417969 0-8-3.582031-8-8s3.582031-8 8-8zm0 0" fill="#b0b0b0"/></svg>